<svg width="73" height="40" viewBox="0 0 73 40" fill="none" xmlns="http://www.w3.org/2000/svg">
<path d="M50.3312 32.6488C43.2258 40.8984 30.7782 41.8261 22.5285 34.7207C14.2789 27.6154 13.3512 15.1677 20.4565 6.91809C27.5619 -1.33157 40.0095 -2.25923 48.2592 4.8461C56.5088 11.9514 57.4365 24.3991 50.3312 32.6488Z" fill="#F4B83C"/>
<path d="M13.6549 12.4399C14.7891 13.4778 15.4984 13.9985 16.8284 14.7698L16.5112 24.1827C15.3507 24.8466 14.7286 25.2867 13.7164 26.1602C11.3593 28.1942 11.9159 31.4995 8.99849 32.5865C6.68829 33.4473 2.71278 32.0012 2.71278 32.0012C2.71278 32.0012 4.33301 29.4236 4.22312 27.6155C4.06073 24.9436 -0.278388 24.8664 0.0141482 22.2056C0.224176 20.2953 2.56187 20.1257 2.92644 18.2387C3.33924 16.1022 0.555772 15.02 1.19901 12.9413C1.80802 10.9731 4.4234 11.456 5.25919 9.57289C5.88232 8.16894 4.84931 7.00685 5.57345 5.65223C6.22402 4.43523 8.24677 3.34137 8.24677 3.34137C8.24677 3.34137 10.6054 9.64948 13.6549 12.4399Z" fill="#F4B83C"/>
<path d="M56.9026 31.9536C55.1967 30.6958 53.5847 27.6587 53.5847 27.6587L53.9847 17.175C53.9847 17.175 55.4497 14.9203 56.7897 13.9009C58.4763 12.6179 59.9752 12.9118 61.8245 11.877C64.2572 10.5157 67.3806 7.39514 67.3806 7.39514C67.3806 7.39514 69.2966 8.46434 69.9694 9.61308C71.2099 11.7309 68.8368 13.435 69.2422 15.8556C69.695 18.5591 73.0914 19.3999 72.4953 22.0754C72.0611 24.0246 69.77 24.0545 69.1684 25.9586C68.4111 28.3558 72.563 30.8078 70.5075 32.255C69.5523 32.9275 68.4372 31.995 67.5604 32.7669C66.4918 33.7075 67.7926 35.1943 66.9849 36.3667C66.24 37.4476 64.136 38.1508 64.136 38.1508C64.136 38.1508 63.6266 35.1848 62.3841 33.8773C60.8213 32.2328 58.7286 33.3 56.9026 31.9536Z" fill="#F4B83C"/>
</svg>
