<svg width="1016" height="96" viewBox="0 0 1016 96" fill="none" xmlns="http://www.w3.org/2000/svg">
<path d="M13.3438 46.8817C10.9297 46.8817 9.47656 45.3348 9.47656 42.8036V21.0067H3.40625C1.625 21.0067 0.289062 19.6473 0.289062 17.8427C0.289062 16.0145 1.625 14.6552 3.40625 14.6552H23.3516C25.1328 14.6552 26.4453 16.0145 26.4453 17.8427C26.4453 19.6473 25.1328 21.0067 23.3516 21.0067H17.2344V42.8036C17.2344 45.3348 15.7578 46.8817 13.3438 46.8817ZM52.3438 42.7567C52.3438 45.4052 51.0078 46.8817 48.5938 46.8817C46.1562 46.8817 44.8203 45.4052 44.8203 42.7567V32.0927C44.8203 29.163 43.3672 27.4755 40.8594 27.4755C38.2109 27.4755 36.4531 29.5614 36.4531 32.7958V42.7567C36.4531 45.4052 35.0938 46.8817 32.7031 46.8817C30.2656 46.8817 28.9297 45.4052 28.9297 42.7567V16.9052C28.9297 14.2333 30.2891 12.7567 32.7031 12.7567C35.1172 12.7567 36.4531 14.2333 36.4531 16.9052V25.952H36.8281C37.6719 23.163 40.6484 21.2411 44.0938 21.2411C49.2969 21.2411 52.3438 24.5223 52.3438 30.1239V42.7567ZM56.5859 35.538V32.7723C56.5859 25.6942 61.2734 21.0067 68.3281 21.0067C74.9609 21.0067 79.6484 25.6473 79.6484 31.8583C79.6484 34.7177 78.6406 35.7489 75.9453 35.7489H64.25V36.663C64.2969 39.6161 66.2656 41.6083 69.6172 41.6083C71.4219 41.6083 72.6406 41.2098 73.6016 40.5067C74.75 39.7802 75.2422 39.3348 76.4141 39.3348C77.9375 39.3348 78.9453 40.3192 78.9453 41.913C78.9453 43.2489 78.125 44.4208 76.6953 45.3114C74.9844 46.5302 72.2422 47.2567 69.0781 47.2567C61.3438 47.2567 56.5859 42.8505 56.5859 35.538ZM64.25 31.4364H72.5469V31.3661C72.5469 28.5067 70.9531 26.6317 68.4922 26.6317C65.8438 26.6317 64.25 28.5536 64.25 31.3661V31.4364ZM120.242 35.6786C120.242 42.7802 114.992 47.3505 106.812 47.3505C98.4922 47.3505 93.3828 42.7567 93.3828 35.6552V18.4989C93.3828 15.9677 94.8359 14.4208 97.2734 14.4208C99.6875 14.4208 101.141 15.9677 101.141 18.4989V34.6708C101.141 38.538 103.25 40.788 106.812 40.788C110.328 40.788 112.484 38.4911 112.484 34.6708V18.4989C112.484 15.9677 113.914 14.4208 116.352 14.4208C118.766 14.4208 120.242 15.9677 120.242 18.4989V35.6786ZM129.664 46.8817C127.273 46.8817 125.914 45.452 125.914 42.7567V16.9052C125.914 14.1864 127.273 12.7567 129.664 12.7567C132.055 12.7567 133.438 14.1864 133.438 16.9052V42.7567C133.438 45.452 132.055 46.8817 129.664 46.8817ZM141.148 39.9208V27.6395H140.234C138.242 27.6395 137.117 26.5848 137.117 24.7802C137.117 22.9755 138.242 21.9208 140.234 21.9208H141.336V19.202C141.336 16.6239 142.648 15.1942 144.969 15.1942C147.312 15.1942 148.602 16.6239 148.602 19.202V21.9208H150.57C152.562 21.9208 153.688 22.9755 153.688 24.7802C153.688 26.5848 152.562 27.6395 150.57 27.6395H148.695V38.7723C148.695 40.788 149.258 41.538 150.852 41.538C151.508 41.538 151.906 41.4208 152.562 41.4208C153.734 41.4208 154.555 42.2411 154.555 43.5536C154.555 44.6317 154.062 45.5223 153.125 46.1552C152.117 46.8583 150.641 47.2333 148.742 47.2333C143.539 47.2333 141.148 44.9833 141.148 39.9208ZM158.141 15.2177C158.141 13.0848 159.852 11.5614 162.195 11.5614C164.562 11.5614 166.25 13.0848 166.25 15.2177C166.25 17.3739 164.562 18.8973 162.195 18.8973C159.852 18.8973 158.141 17.3739 158.141 15.2177ZM165.969 42.7567C165.969 45.452 164.586 46.8817 162.195 46.8817C159.805 46.8817 158.445 45.452 158.445 42.7567V25.5302C158.445 22.8348 159.828 21.4052 162.195 21.4052C164.586 21.4052 165.969 22.8348 165.969 25.5302V42.7567ZM208.742 42.7567C208.742 45.452 207.383 46.8817 204.969 46.8817C202.555 46.8817 201.219 45.452 201.219 42.7567V31.6473C201.219 28.8817 199.859 27.3114 197.562 27.3114C195.242 27.3114 193.766 29.0692 193.766 31.8583V42.7567C193.766 45.452 192.523 46.8817 190.18 46.8817C187.812 46.8817 186.57 45.452 186.57 42.7567V31.6942C186.57 28.952 185.164 27.3114 182.867 27.3114C180.57 27.3114 179.117 29.0458 179.117 31.8583V42.7567C179.117 45.452 177.781 46.8817 175.367 46.8817C172.953 46.8817 171.594 45.452 171.594 42.7567V25.413C171.594 22.9286 173 21.4052 175.273 21.4052C177.43 21.4052 178.789 22.8114 178.906 25.1786V25.8817H179.281C180.055 23.0692 182.75 21.2411 186.148 21.2411C189.688 21.2411 192.195 23.0223 192.992 25.9755H193.344C194.305 23.1161 197.164 21.2411 200.797 21.2411C205.719 21.2411 208.742 24.288 208.742 29.2802V42.7567ZM227.703 43.577C226.531 45.6864 224.094 46.9286 221.117 46.9286C216.219 46.9286 212.914 43.8817 212.914 39.3583C212.914 34.6942 216.406 31.8348 222.195 31.8114H227.727V30.0067C227.727 27.8973 226.344 26.7723 223.953 26.7723C222.219 26.7723 220.953 27.4755 219.617 28.4364C218.844 28.9286 218.07 29.2098 216.898 29.2098C215.281 29.2098 214.297 28.1317 214.297 26.6786C214.297 25.1552 215.328 23.6317 217.648 22.5302C219.312 21.7333 221.539 21.2411 224.445 21.2411C231.336 21.2411 235.25 24.452 235.25 30.1005V42.8973C235.25 45.4755 233.938 46.8817 231.594 46.8817C229.672 46.8817 228.359 45.8739 228.055 44.0692V43.577H227.703ZM220.32 38.8192C220.32 40.577 221.75 41.7958 223.789 41.7958C225.992 41.7958 227.727 40.3192 227.727 38.4208V35.9833H223.883C221.68 35.9833 220.32 37.0614 220.32 38.8192ZM242.164 39.9208V27.6395H241.25C239.258 27.6395 238.133 26.5848 238.133 24.7802C238.133 22.9755 239.258 21.9208 241.25 21.9208H242.352V19.202C242.352 16.6239 243.664 15.1942 245.984 15.1942C248.328 15.1942 249.617 16.6239 249.617 19.202V21.9208H251.586C253.578 21.9208 254.703 22.9755 254.703 24.7802C254.703 26.5848 253.578 27.6395 251.586 27.6395H249.711V38.7723C249.711 40.788 250.273 41.538 251.867 41.538C252.523 41.538 252.922 41.4208 253.578 41.4208C254.75 41.4208 255.57 42.2411 255.57 43.5536C255.57 44.6317 255.078 45.5223 254.141 46.1552C253.133 46.8583 251.656 47.2333 249.758 47.2333C244.555 47.2333 242.164 44.9833 242.164 39.9208ZM257.82 35.538V32.7723C257.82 25.6942 262.508 21.0067 269.562 21.0067C276.195 21.0067 280.883 25.6473 280.883 31.8583C280.883 34.7177 279.875 35.7489 277.18 35.7489H265.484V36.663C265.531 39.6161 267.5 41.6083 270.852 41.6083C272.656 41.6083 273.875 41.2098 274.836 40.5067C275.984 39.7802 276.477 39.3348 277.648 39.3348C279.172 39.3348 280.18 40.3192 280.18 41.913C280.18 43.2489 279.359 44.4208 277.93 45.3114C276.219 46.5302 273.477 47.2567 270.312 47.2567C262.578 47.2567 257.82 42.8505 257.82 35.538ZM265.484 31.4364H273.781V31.3661C273.781 28.5067 272.188 26.6317 269.727 26.6317C267.078 26.6317 265.484 28.5536 265.484 31.3661V31.4364ZM318.359 46.8817C315.875 46.8817 314.492 45.3817 314.492 42.7098V33.5223H302.75V42.7098C302.75 45.3583 301.344 46.8817 298.859 46.8817C296.375 46.8817 294.992 45.3817 294.992 42.7098V18.5927C294.992 15.9208 296.375 14.4208 298.859 14.4208C301.344 14.4208 302.75 15.9442 302.75 18.5927V27.3583H314.492V18.5927C314.492 15.9208 315.875 14.4208 318.359 14.4208C320.844 14.4208 322.25 15.9442 322.25 18.5927V42.7098C322.25 45.3583 320.844 46.8817 318.359 46.8817ZM341.656 43.577C340.484 45.6864 338.047 46.9286 335.07 46.9286C330.172 46.9286 326.867 43.8817 326.867 39.3583C326.867 34.6942 330.359 31.8348 336.148 31.8114H341.68V30.0067C341.68 27.8973 340.297 26.7723 337.906 26.7723C336.172 26.7723 334.906 27.4755 333.57 28.4364C332.797 28.9286 332.023 29.2098 330.852 29.2098C329.234 29.2098 328.25 28.1317 328.25 26.6786C328.25 25.1552 329.281 23.6317 331.602 22.5302C333.266 21.7333 335.492 21.2411 338.398 21.2411C345.289 21.2411 349.203 24.452 349.203 30.1005V42.8973C349.203 45.4755 347.891 46.8817 345.547 46.8817C343.625 46.8817 342.312 45.8739 342.008 44.0692V43.577H341.656ZM334.273 38.8192C334.273 40.577 335.703 41.7958 337.742 41.7958C339.945 41.7958 341.68 40.3192 341.68 38.4208V35.9833H337.836C335.633 35.9833 334.273 37.0614 334.273 38.8192ZM358.227 46.8817C355.836 46.8817 354.477 45.452 354.477 42.7567V16.9052C354.477 14.1864 355.836 12.7567 358.227 12.7567C360.617 12.7567 362 14.1864 362 16.9052V42.7567C362 45.452 360.617 46.8817 358.227 46.8817ZM371.633 46.8817C369.242 46.8817 367.883 45.452 367.883 42.7567V16.9052C367.883 14.1864 369.242 12.7567 371.633 12.7567C374.023 12.7567 375.406 14.1864 375.406 16.9052V42.7567C375.406 45.452 374.023 46.8817 371.633 46.8817ZM391.977 21.0067C399.195 21.0067 404 25.5067 404 32.8192V35.2567C404 42.8973 399.195 47.2567 391.977 47.2567C384.734 47.2567 379.93 42.8973 379.93 35.2802V32.8661C379.93 25.5067 384.734 21.0067 391.977 21.0067ZM391.977 26.6317C389.305 26.6317 387.688 28.9052 387.688 32.8192V35.4208C387.688 39.3348 389.305 41.6317 391.977 41.6317C394.672 41.6317 396.219 39.3348 396.219 35.4208V32.8192C396.219 28.9052 394.672 26.6317 391.977 26.6317ZM410.844 41.2567L406.977 26.6317C406.789 25.7645 406.719 25.3427 406.719 24.9677C406.719 22.8817 408.219 21.452 410.469 21.452C412.414 21.452 413.68 22.6942 414.031 24.9442L416.609 39.3348H416.938L420.195 25.5536C420.828 22.7411 422.164 21.452 424.508 21.452C426.898 21.452 428.328 22.788 428.961 25.5536L432.242 39.3348H432.594L435.336 25.038C435.734 22.7645 437.047 21.452 438.922 21.452C441.195 21.452 442.648 22.8583 442.648 24.8739C442.648 25.2958 442.508 25.952 442.32 26.7255L438.266 41.2567C437.141 45.3348 435.594 46.8817 432.969 46.8817C430.156 46.8817 428.609 45.3817 427.648 41.2567L424.672 29.7255H424.391L421.484 41.2567C420.523 45.3817 419.047 46.8817 416.188 46.8817C413.492 46.8817 411.852 45.2411 410.844 41.2567ZM445.227 35.538V32.7723C445.227 25.6942 449.914 21.0067 456.969 21.0067C463.602 21.0067 468.289 25.6473 468.289 31.8583C468.289 34.7177 467.281 35.7489 464.586 35.7489H452.891V36.663C452.938 39.6161 454.906 41.6083 458.258 41.6083C460.062 41.6083 461.281 41.2098 462.242 40.5067C463.391 39.7802 463.883 39.3348 465.055 39.3348C466.578 39.3348 467.586 40.3192 467.586 41.913C467.586 43.2489 466.766 44.4208 465.336 45.3114C463.625 46.5302 460.883 47.2567 457.719 47.2567C449.984 47.2567 445.227 42.8505 445.227 35.538ZM452.891 31.4364H461.188V31.3661C461.188 28.5067 459.594 26.6317 457.133 26.6317C454.484 26.6317 452.891 28.5536 452.891 31.3661V31.4364ZM471.664 35.538V32.7723C471.664 25.6942 476.352 21.0067 483.406 21.0067C490.039 21.0067 494.727 25.6473 494.727 31.8583C494.727 34.7177 493.719 35.7489 491.023 35.7489H479.328V36.663C479.375 39.6161 481.344 41.6083 484.695 41.6083C486.5 41.6083 487.719 41.2098 488.68 40.5067C489.828 39.7802 490.32 39.3348 491.492 39.3348C493.016 39.3348 494.023 40.3192 494.023 41.913C494.023 43.2489 493.203 44.4208 491.773 45.3114C490.062 46.5302 487.32 47.2567 484.156 47.2567C476.422 47.2567 471.664 42.8505 471.664 35.538ZM479.328 31.4364H487.625V31.3661C487.625 28.5067 486.031 26.6317 483.57 26.6317C480.922 26.6317 479.328 28.5536 479.328 31.3661V31.4364ZM522.383 42.7802C522.383 45.452 521.023 46.8817 518.609 46.8817C516.172 46.8817 514.836 45.4052 514.836 42.7567V32.0692C514.836 29.1864 513.406 27.4755 510.945 27.4755C508.297 27.4755 506.586 29.4911 506.586 32.7958V42.7567C506.586 45.4052 505.25 46.8817 502.836 46.8817C500.422 46.8817 499.062 45.4052 499.062 42.7567V25.3895C499.062 22.9052 500.469 21.4052 502.742 21.4052C504.969 21.4052 506.258 22.6708 506.375 25.038V25.952H506.75C507.664 23.0927 510.547 21.2411 514.109 21.2411C519.383 21.2411 522.383 24.452 522.383 30.1005V42.7802ZM536.234 32.2567V28.788C536.234 19.577 541.32 14.0692 550.133 14.0692C554.305 14.0692 558.008 15.3348 560.305 17.5614C561.852 19.0614 562.789 20.8895 562.789 22.3427C562.789 24.2177 561.5 25.4598 559.625 25.4598C558.383 25.4598 557.469 24.9911 556.25 23.7489C554.492 21.5927 552.852 20.6083 550.602 20.6083C546.383 20.6083 543.992 23.7255 543.992 29.1395V31.9052C543.992 37.6708 546.336 40.788 550.602 40.788C552.875 40.788 554.703 39.8036 556.367 37.6942C557.609 36.4052 558.453 35.9598 559.648 35.9598C561.547 35.9598 562.836 37.2255 562.836 39.077C562.836 40.9286 561.57 42.9911 559.531 44.5145C557.234 46.2958 554 47.3505 550.133 47.3505C541.18 47.3505 536.234 41.8661 536.234 32.2567ZM581.047 43.577C579.875 45.6864 577.438 46.9286 574.461 46.9286C569.562 46.9286 566.258 43.8817 566.258 39.3583C566.258 34.6942 569.75 31.8348 575.539 31.8114H581.07V30.0067C581.07 27.8973 579.688 26.7723 577.297 26.7723C575.562 26.7723 574.297 27.4755 572.961 28.4364C572.188 28.9286 571.414 29.2098 570.242 29.2098C568.625 29.2098 567.641 28.1317 567.641 26.6786C567.641 25.1552 568.672 23.6317 570.992 22.5302C572.656 21.7333 574.883 21.2411 577.789 21.2411C584.68 21.2411 588.594 24.452 588.594 30.1005V42.8973C588.594 45.4755 587.281 46.8817 584.938 46.8817C583.016 46.8817 581.703 45.8739 581.398 44.0692V43.577H581.047ZM573.664 38.8192C573.664 40.577 575.094 41.7958 577.133 41.7958C579.336 41.7958 581.07 40.3192 581.07 38.4208V35.9833H577.227C575.023 35.9833 573.664 37.0614 573.664 38.8192ZM616.93 42.7802C616.93 45.452 615.57 46.8817 613.156 46.8817C610.719 46.8817 609.383 45.4052 609.383 42.7567V32.0692C609.383 29.1864 607.953 27.4755 605.492 27.4755C602.844 27.4755 601.133 29.4911 601.133 32.7958V42.7567C601.133 45.4052 599.797 46.8817 597.383 46.8817C594.969 46.8817 593.609 45.4052 593.609 42.7567V25.3895C593.609 22.9052 595.016 21.4052 597.289 21.4052C599.516 21.4052 600.805 22.6708 600.922 25.038V25.952H601.297C602.211 23.0927 605.094 21.2411 608.656 21.2411C613.93 21.2411 616.93 24.452 616.93 30.1005V42.7802ZM637.625 42.6395C636.781 45.2411 633.945 46.9286 630.453 46.9286C624.758 46.9286 621.266 42.663 621.266 35.6317V32.5145C621.266 25.4833 624.781 21.2411 630.477 21.2411C633.945 21.2411 636.617 22.8114 637.555 25.3661H637.93V16.9052C637.93 14.2333 639.266 12.7567 641.68 12.7567C644.117 12.7567 645.453 14.2333 645.453 16.9052V42.7567C645.453 45.4286 644.141 46.8817 641.727 46.8817C639.547 46.8817 638.188 45.5927 638 43.3427V42.6395H637.625ZM629.047 35.163C629.047 38.913 630.688 41.1161 633.453 41.1161C636.219 41.1161 637.93 38.913 637.93 35.3036V32.702C637.93 29.3036 636.125 27.077 633.406 27.077C630.664 27.077 629.047 29.3036 629.047 33.0302V35.163ZM650 52.2723C650 50.9598 650.984 49.9989 652.414 49.9989C653.023 49.9989 653.445 50.1161 654.266 50.1395C655.531 50.1395 656.539 49.3895 656.961 48.1942C657.055 47.9833 657.219 47.163 657.219 46.8817L650.281 26.7723C650.047 26.0223 649.953 25.4598 649.953 24.9442C649.953 22.9286 651.523 21.4755 653.656 21.4755C655.719 21.4755 657.008 22.6239 657.523 24.9677L661.555 40.8348H661.859L666.031 24.9677C666.594 22.6005 667.812 21.4755 669.828 21.4755C671.891 21.4755 673.391 22.9286 673.391 24.9208C673.391 25.4598 673.273 25.9989 673.016 26.7723L666.031 47.1161C664.016 53.0223 660.852 55.5302 655.109 55.5302C653.164 55.5302 651.664 55.0848 650.82 54.2645C650.281 53.7255 650 53.0458 650 52.2723ZM690.758 46.8817C688.297 46.8817 686.914 45.3817 686.914 42.7098V19.952C686.914 16.1317 688.32 14.6552 691.977 14.6552H700.203C707.211 14.6552 711.641 18.9208 711.641 25.5067C711.641 32.5145 707.141 36.4286 699.805 36.4286H694.648V42.7098C694.648 45.3583 693.242 46.8817 690.758 46.8817ZM694.672 30.663H698.188C702.195 30.663 703.977 29.3505 703.977 25.6473C703.977 22.4598 702.219 20.6317 699.055 20.6317H694.672V30.663ZM726.008 21.0067C733.227 21.0067 738.031 25.5067 738.031 32.8192V35.2567C738.031 42.8973 733.227 47.2567 726.008 47.2567C718.766 47.2567 713.961 42.8973 713.961 35.2802V32.8661C713.961 25.5067 718.766 21.0067 726.008 21.0067ZM726.008 26.6317C723.336 26.6317 721.719 28.9052 721.719 32.8192V35.4208C721.719 39.3348 723.336 41.6317 726.008 41.6317C728.703 41.6317 730.25 39.3348 730.25 35.4208V32.8192C730.25 28.9052 728.703 26.6317 726.008 26.6317ZM744.875 41.2567L741.008 26.6317C740.82 25.7645 740.75 25.3427 740.75 24.9677C740.75 22.8817 742.25 21.452 744.5 21.452C746.445 21.452 747.711 22.6942 748.062 24.9442L750.641 39.3348H750.969L754.227 25.5536C754.859 22.7411 756.195 21.452 758.539 21.452C760.93 21.452 762.359 22.788 762.992 25.5536L766.273 39.3348H766.625L769.367 25.038C769.766 22.7645 771.078 21.452 772.953 21.452C775.227 21.452 776.68 22.8583 776.68 24.8739C776.68 25.2958 776.539 25.952 776.352 26.7255L772.297 41.2567C771.172 45.3348 769.625 46.8817 767 46.8817C764.188 46.8817 762.641 45.3817 761.68 41.2567L758.703 29.7255H758.422L755.516 41.2567C754.555 45.3817 753.078 46.8817 750.219 46.8817C747.523 46.8817 745.883 45.2411 744.875 41.2567ZM779.258 35.538V32.7723C779.258 25.6942 783.945 21.0067 791 21.0067C797.633 21.0067 802.32 25.6473 802.32 31.8583C802.32 34.7177 801.312 35.7489 798.617 35.7489H786.922V36.663C786.969 39.6161 788.938 41.6083 792.289 41.6083C794.094 41.6083 795.312 41.2098 796.273 40.5067C797.422 39.7802 797.914 39.3348 799.086 39.3348C800.609 39.3348 801.617 40.3192 801.617 41.913C801.617 43.2489 800.797 44.4208 799.367 45.3114C797.656 46.5302 794.914 47.2567 791.75 47.2567C784.016 47.2567 779.258 42.8505 779.258 35.538ZM786.922 31.4364H795.219V31.3661C795.219 28.5067 793.625 26.6317 791.164 26.6317C788.516 26.6317 786.922 28.5536 786.922 31.3661V31.4364ZM814.25 42.7567C814.25 45.3817 812.844 46.8817 810.406 46.8817C807.945 46.8817 806.727 45.3817 806.727 42.7567V25.5302C806.727 22.8817 808.016 21.4052 810.43 21.4052C812.609 21.4052 813.852 22.6239 814.016 24.8973V25.2489H814.367C815.211 22.6708 816.992 21.2411 819.406 21.2411C820.438 21.2411 821.258 21.5223 821.844 22.0848C822.453 22.6473 822.781 23.4677 822.781 24.5223C822.781 25.5536 822.477 26.3036 821.867 26.8192C821.305 27.288 820.438 27.5458 819.312 27.5927C815.914 27.7098 814.25 29.5614 814.25 33.1473V42.7567ZM843.266 42.7098C843.266 45.3817 841.906 46.8817 839.445 46.8817C836.938 46.8817 835.508 45.3583 835.508 42.7098V20.2567C835.508 16.4598 837.219 14.6552 840.898 14.6552H849.359C856.531 14.6552 860.938 18.4286 860.938 24.5692C860.938 28.6005 858.969 31.7645 855.5 33.3817L859.672 40.7645C860.094 41.4911 860.305 42.3817 860.305 43.202C860.305 45.3348 858.711 46.8348 856.461 46.8348C854.422 46.8348 853.344 45.9911 852.078 43.5067L847.859 35.2802H843.266V42.7098ZM843.266 29.7958H848.305C851.375 29.7958 853.25 28.1786 853.25 25.2723C853.25 22.413 851.398 20.7958 848.305 20.7958H843.266V29.7958ZM879.031 43.577C877.859 45.6864 875.422 46.9286 872.445 46.9286C867.547 46.9286 864.242 43.8817 864.242 39.3583C864.242 34.6942 867.734 31.8348 873.523 31.8114H879.055V30.0067C879.055 27.8973 877.672 26.7723 875.281 26.7723C873.547 26.7723 872.281 27.4755 870.945 28.4364C870.172 28.9286 869.398 29.2098 868.227 29.2098C866.609 29.2098 865.625 28.1317 865.625 26.6786C865.625 25.1552 866.656 23.6317 868.977 22.5302C870.641 21.7333 872.867 21.2411 875.773 21.2411C882.664 21.2411 886.578 24.452 886.578 30.1005V42.8973C886.578 45.4755 885.266 46.8817 882.922 46.8817C881 46.8817 879.688 45.8739 879.383 44.0692V43.577H879.031ZM871.648 38.8192C871.648 40.577 873.078 41.7958 875.117 41.7958C877.32 41.7958 879.055 40.3192 879.055 38.4208V35.9833H875.211C873.008 35.9833 871.648 37.0614 871.648 38.8192ZM914.914 42.7802C914.914 45.452 913.555 46.8817 911.141 46.8817C908.703 46.8817 907.367 45.4052 907.367 42.7567V32.0692C907.367 29.1864 905.938 27.4755 903.477 27.4755C900.828 27.4755 899.117 29.4911 899.117 32.7958V42.7567C899.117 45.4052 897.781 46.8817 895.367 46.8817C892.953 46.8817 891.594 45.4052 891.594 42.7567V25.3895C891.594 22.9052 893 21.4052 895.273 21.4052C897.5 21.4052 898.789 22.6708 898.906 25.038V25.952H899.281C900.195 23.0927 903.078 21.2411 906.641 21.2411C911.914 21.2411 914.914 24.452 914.914 30.1005V42.7802ZM927.805 42.7567C927.805 45.3817 926.516 46.8817 924.125 46.8817C921.688 46.8817 920.305 45.3817 920.305 42.7567V16.9052C920.305 14.2333 921.617 12.7567 924.055 12.7567C926.469 12.7567 927.805 14.2333 927.805 16.9052V30.7802H928.227L936.031 22.6942C937.062 21.6161 937.953 21.1708 939.102 21.1708C940.977 21.1708 942.336 22.5302 942.336 24.4052C942.336 25.3661 941.961 26.2098 941.164 27.0067L935.516 32.6786L941.797 40.4364C942.641 41.4442 943.062 42.452 943.062 43.4364C943.062 45.3348 941.562 46.8348 939.641 46.8348C938.328 46.8348 937.344 46.2958 936.359 45.1005L929.703 36.6864L927.805 38.5145V42.7567ZM946.906 15.2177C946.906 13.0848 948.617 11.5614 950.961 11.5614C953.328 11.5614 955.016 13.0848 955.016 15.2177C955.016 17.3739 953.328 18.8973 950.961 18.8973C948.617 18.8973 946.906 17.3739 946.906 15.2177ZM954.734 42.7567C954.734 45.452 953.352 46.8817 950.961 46.8817C948.57 46.8817 947.211 45.452 947.211 42.7567V25.5302C947.211 22.8348 948.594 21.4052 950.961 21.4052C953.352 21.4052 954.734 22.8348 954.734 25.5302V42.7567ZM983.68 42.7802C983.68 45.452 982.32 46.8817 979.906 46.8817C977.469 46.8817 976.133 45.4052 976.133 42.7567V32.0692C976.133 29.1864 974.703 27.4755 972.242 27.4755C969.594 27.4755 967.883 29.4911 967.883 32.7958V42.7567C967.883 45.4052 966.547 46.8817 964.133 46.8817C961.719 46.8817 960.359 45.4052 960.359 42.7567V25.3895C960.359 22.9052 961.766 21.4052 964.039 21.4052C966.266 21.4052 967.555 22.6708 967.672 25.038V25.952H968.047C968.961 23.0927 971.844 21.2411 975.406 21.2411C980.68 21.2411 983.68 24.452 983.68 30.1005V42.7802ZM1004.23 42.1473C1003.32 44.4677 1000.72 46.0614 997.273 46.0614C991.672 46.0614 988.039 41.8895 988.039 34.6239V32.702C988.039 25.4364 991.672 21.2411 997.25 21.2411C1000.84 21.2411 1003.44 23.0223 1004.3 25.4364H1004.68V24.8036C1004.84 22.5067 1006.23 21.3114 1008.36 21.3114C1010.75 21.3114 1012.13 22.7645 1012.13 25.4364V45.9208C1012.13 52.5536 1007.38 56.0458 999.758 56.0458C996.336 56.0458 993.617 55.5067 991.789 54.4989C990.078 53.5614 989.047 52.202 989.047 50.5848C989.047 48.9208 990.219 47.8192 992.07 47.8192C993.102 47.8192 993.781 48.2177 994.602 48.7098C995.75 49.3427 997.18 50.2098 999.711 50.2098C1003.04 50.2098 1004.61 48.6864 1004.61 45.3114V42.1473H1004.23ZM995.82 34.7411C995.82 38.3973 997.555 40.6942 1000.27 40.6942C1003.06 40.6942 1004.61 38.3036 1004.61 35.0223V32.7723C1004.61 29.4442 1003.04 27.077 1000.23 27.077C997.508 27.077 995.82 29.3505 995.82 33.0302V34.7411Z" fill="white"/>
<path d="M9.16406 72.7255C8.82812 72.7255 8.61719 72.4911 8.61719 72.1239V67.6083H2.94531V72.1239C2.94531 72.4911 2.72656 72.7255 2.39062 72.7255C2.05469 72.7255 1.85156 72.4911 1.85156 72.1239V62.5145C1.85156 62.1473 2.05469 61.913 2.39062 61.913C2.72656 61.913 2.94531 62.1473 2.94531 62.5145V66.6083H8.61719V62.5145C8.61719 62.1473 8.82812 61.913 9.16406 61.913C9.5 61.913 9.71094 62.1473 9.71094 62.5145V72.1239C9.71094 72.4911 9.5 72.7255 9.16406 72.7255ZM15.4141 64.3427C17.3516 64.3427 18.8438 65.6317 18.8438 67.9208V69.2098C18.8438 71.4989 17.3516 72.788 15.4141 72.788C13.4609 72.788 11.9766 71.4989 11.9766 69.2098V67.9208C11.9766 65.6239 13.4609 64.3427 15.4141 64.3427ZM15.4141 65.3114C14.0078 65.3114 13.0703 66.3583 13.0703 68.038V69.0927C13.0703 70.7958 14.0078 71.8192 15.4141 71.8192C16.8281 71.8192 17.7578 70.8036 17.7578 69.0927V68.038C17.7578 66.3661 16.8203 65.3114 15.4141 65.3114ZM22.0547 71.6942L20.2891 65.3817C20.25 65.2411 20.2344 65.1161 20.2344 65.0145C20.2344 64.6786 20.4766 64.4442 20.8047 64.4442C21.0859 64.4442 21.2969 64.6552 21.3906 65.0692L22.8594 71.2411H22.9062L24.5859 65.4598C24.8203 64.6005 24.9531 64.4286 25.3906 64.4286C25.8203 64.4286 25.9453 64.5927 26.1953 65.4598L27.9062 71.2411H27.9609L29.4609 65.038C29.5547 64.6473 29.7422 64.4364 30.0078 64.4364C30.3125 64.4364 30.5234 64.6395 30.5234 64.9442C30.5234 65.038 30.5078 65.1239 30.4609 65.2958L28.7422 71.6942C28.5234 72.538 28.3672 72.7255 27.9609 72.7255C27.5469 72.7255 27.375 72.5458 27.1172 71.6942L25.4062 66.0302H25.375L23.6953 71.6942C23.4531 72.538 23.3125 72.7255 22.8906 72.7255C22.4453 72.7255 22.2891 72.5458 22.0547 71.6942ZM38.6016 64.3427C40.5391 64.3427 42.0312 65.6317 42.0312 67.9208V69.2098C42.0312 71.4989 40.5391 72.788 38.6016 72.788C36.6484 72.788 35.1641 71.4989 35.1641 69.2098V67.9208C35.1641 65.6239 36.6484 64.3427 38.6016 64.3427ZM38.6016 65.3114C37.1953 65.3114 36.2578 66.3583 36.2578 68.038V69.0927C36.2578 70.7958 37.1953 71.8192 38.6016 71.8192C40.0156 71.8192 40.9453 70.8036 40.9453 69.0927V68.038C40.9453 66.3661 40.0078 65.3114 38.6016 65.3114ZM45.7344 72.1239C45.7344 72.4989 45.5312 72.7255 45.1953 72.7255C44.8594 72.7255 44.6562 72.4989 44.6562 72.1239V65.413H43.8438C43.5312 65.413 43.3281 65.2333 43.3281 64.9442C43.3281 64.6552 43.5234 64.4833 43.8438 64.4833H44.6562V63.6083C44.6562 62.0927 45.3906 61.3739 46.875 61.3739C47.2656 61.3739 47.6016 61.452 47.7734 61.577C47.9062 61.6786 47.9844 61.8036 47.9844 61.9677C47.9844 62.2177 47.8281 62.3895 47.5625 62.3895C47.2734 62.3895 47.1406 62.327 46.7734 62.327C46.0703 62.327 45.7344 62.702 45.7344 63.5458V64.4833H47.0938C47.4062 64.4833 47.6094 64.6552 47.6094 64.952C47.6094 65.2333 47.4062 65.413 47.0938 65.413H45.7344V72.1239ZM49.9766 70.577V65.413H49.2344C48.9219 65.413 48.7188 65.2333 48.7188 64.952C48.7188 64.6552 48.9141 64.4833 49.2344 64.4833H49.9766V63.0145C49.9766 62.6395 50.1797 62.413 50.5156 62.413C50.8516 62.413 51.0547 62.6395 51.0547 63.0145V64.4833H52.3906C52.7109 64.4833 52.9062 64.6552 52.9062 64.952C52.9062 65.2333 52.7031 65.413 52.3906 65.413H51.0547V70.6395C51.0547 71.5536 51.3359 71.8192 52.1641 71.8192C52.4297 71.8192 52.5859 71.7958 52.7266 71.7958C52.9844 71.7958 53.1641 71.952 53.1641 72.2098C53.1641 72.4052 53.0703 72.5536 52.8672 72.6395C52.6875 72.7255 52.4141 72.7723 51.9844 72.7723C50.5234 72.7723 49.9766 72.2255 49.9766 70.577ZM54.3672 69.202V67.9598C54.3672 65.7723 55.7344 64.3427 57.6953 64.3427C59.6016 64.3427 60.9453 65.7333 60.9453 67.8427C60.9453 68.5927 60.8047 68.8192 60.3203 68.8192H55.4531V69.2645C55.4531 70.8661 56.375 71.8192 57.8594 71.8192C58.7422 71.8192 59.2891 71.4442 59.6797 71.038C60.0312 70.6864 60.1172 70.6317 60.3047 70.6317C60.5547 70.6317 60.7422 70.8427 60.7422 71.1083C60.7422 71.327 60.5781 71.6708 60.3047 71.9364C59.8125 72.4598 58.875 72.788 57.8125 72.788C55.6719 72.788 54.3672 71.4442 54.3672 69.202ZM55.4531 67.8817H59.8594V67.8583C59.8594 66.2802 59.0156 65.2958 57.6953 65.2958C56.3594 65.2958 55.4531 66.3114 55.4531 67.8583V67.8817ZM69.5391 72.1239C69.5391 72.4989 69.3281 72.7255 68.9922 72.7255C68.6562 72.7255 68.4531 72.4989 68.4531 72.1239V67.4052C68.4531 66.077 67.7656 65.3114 66.5078 65.3114C65.0391 65.3114 64.1562 66.3817 64.1562 67.9989V72.1239C64.1562 72.4989 63.9531 72.7255 63.6172 72.7255C63.2812 72.7255 63.0781 72.4989 63.0781 72.1239V65.0145C63.0781 64.6395 63.2891 64.4052 63.625 64.4052C63.9531 64.4052 64.1562 64.6395 64.1562 65.0145V66.0067H64.2109C64.5391 64.9989 65.4219 64.3427 66.75 64.3427C68.4844 64.3427 69.5391 65.3427 69.5391 67.0848V72.1239ZM80.5078 71.2723C80.2969 72.0302 79.3281 72.788 77.9844 72.788C76.0938 72.788 74.8359 71.4598 74.8359 69.413V67.7255C74.8359 65.6395 76.1562 64.3427 78.0156 64.3427C79.2812 64.3427 80.1562 64.9833 80.4609 65.7723H80.5156V61.9833C80.5156 61.6161 80.7188 61.3817 81.0547 61.3817C81.3906 61.3817 81.5938 61.6161 81.5938 61.9833V72.1161C81.5938 72.4989 81.4062 72.7177 81.0781 72.7177C80.7578 72.7177 80.5703 72.4989 80.5703 72.1161V71.2723H80.5078ZM75.9297 69.1317C75.9297 70.8348 76.8047 71.8192 78.1875 71.8192C79.625 71.8192 80.5156 70.7645 80.5156 69.2567V67.7489C80.5156 66.3427 79.5312 65.3114 78.1484 65.3114C76.8125 65.3114 75.9297 66.2802 75.9297 67.9989V69.1317ZM84 62.4052C84 61.9755 84.3359 61.663 84.7422 61.663C85.1797 61.663 85.5078 61.9755 85.5078 62.4052C85.5078 62.8348 85.1797 63.163 84.7422 63.163C84.3359 63.163 84 62.8348 84 62.4052ZM85.2891 72.1239C85.2891 72.5302 85.0547 72.7255 84.75 72.7255C84.4453 72.7255 84.2109 72.5223 84.2109 72.1239V65.0067C84.2109 64.6005 84.4531 64.4052 84.7578 64.4052C85.0625 64.4052 85.2891 64.6083 85.2891 65.0067V72.1239ZM93.2109 71.2723C93 72.0302 92.0312 72.788 90.6875 72.788C88.7969 72.788 87.5391 71.4598 87.5391 69.413V67.7255C87.5391 65.6395 88.8594 64.3427 90.7188 64.3427C91.9844 64.3427 92.8594 64.9833 93.1641 65.7723H93.2188V61.9833C93.2188 61.6161 93.4219 61.3817 93.7578 61.3817C94.0938 61.3817 94.2969 61.6161 94.2969 61.9833V72.1161C94.2969 72.4989 94.1094 72.7177 93.7812 72.7177C93.4609 72.7177 93.2734 72.4989 93.2734 72.1161V71.2723H93.2109ZM88.6328 69.1317C88.6328 70.8348 89.5078 71.8192 90.8906 71.8192C92.3281 71.8192 93.2188 70.7645 93.2188 69.2567V67.7489C93.2188 66.3427 92.2344 65.3114 90.8516 65.3114C89.5156 65.3114 88.6328 66.2802 88.6328 67.9989V69.1317ZM104.688 71.4911C104.234 72.3036 103.328 72.788 102.258 72.788C100.664 72.788 99.5938 71.7802 99.5938 70.2958C99.5938 68.8192 100.656 67.913 102.43 67.913H104.703V67.0145C104.703 65.8817 104.023 65.288 102.766 65.288C102 65.288 101.461 65.577 100.984 66.2098C100.82 66.4208 100.672 66.4833 100.461 66.4833C100.203 66.4833 100.031 66.3114 100.031 66.038C100.031 65.6083 100.375 65.1395 100.977 64.7802C101.445 64.4989 102.047 64.3427 102.828 64.3427C104.727 64.3427 105.781 65.2802 105.781 66.9833V72.1161C105.781 72.4911 105.586 72.7177 105.258 72.7177C104.93 72.7177 104.734 72.4911 104.734 72.1161V71.4911H104.688ZM100.711 70.2723C100.711 71.2098 101.43 71.8427 102.516 71.8427C103.758 71.8427 104.703 70.9833 104.703 69.8583V68.8505H102.453C101.336 68.8505 100.711 69.3583 100.711 70.2723ZM112.969 72.1239C112.969 72.4989 112.766 72.7255 112.43 72.7255C112.094 72.7255 111.891 72.4989 111.891 72.1239V65.413H111.078C110.766 65.413 110.562 65.2333 110.562 64.9442C110.562 64.6552 110.758 64.4833 111.078 64.4833H111.891V63.6083C111.891 62.0927 112.625 61.3739 114.109 61.3739C114.5 61.3739 114.836 61.452 115.008 61.577C115.141 61.6786 115.219 61.8036 115.219 61.9677C115.219 62.2177 115.062 62.3895 114.797 62.3895C114.508 62.3895 114.375 62.327 114.008 62.327C113.305 62.327 112.969 62.702 112.969 63.5458V64.4833H114.328C114.641 64.4833 114.844 64.6552 114.844 64.952C114.844 65.2333 114.641 65.413 114.328 65.413H112.969V72.1239ZM121.734 71.2333C121.461 71.9755 120.719 72.788 119.172 72.788C117.633 72.788 116.445 72.0067 116.445 70.163V64.9755C116.445 64.5692 116.68 64.3973 116.984 64.3973C117.289 64.3973 117.523 64.5692 117.523 64.9755V69.8973C117.523 71.2958 118.391 71.8192 119.422 71.8192C120.828 71.8192 121.797 70.8583 121.797 69.6864V64.9755C121.797 64.5692 122.031 64.3973 122.336 64.3973C122.641 64.3973 122.883 64.5692 122.883 64.9755V72.1395C122.883 72.5458 122.641 72.7177 122.336 72.7177C122.031 72.7177 121.797 72.5458 121.797 72.1395V71.2333H121.734ZM131.852 72.1239C131.852 72.4989 131.641 72.7255 131.305 72.7255C130.969 72.7255 130.766 72.4989 130.766 72.1239V67.4052C130.766 66.077 130.078 65.3114 128.82 65.3114C127.352 65.3114 126.469 66.3817 126.469 67.9989V72.1239C126.469 72.4989 126.266 72.7255 125.93 72.7255C125.594 72.7255 125.391 72.4989 125.391 72.1239V65.0145C125.391 64.6395 125.602 64.4052 125.938 64.4052C126.266 64.4052 126.469 64.6395 126.469 65.0145V66.0067H126.523C126.852 64.9989 127.734 64.3427 129.062 64.3427C130.797 64.3427 131.852 65.3427 131.852 67.0848V72.1239ZM133.367 68.2567C133.367 67.9755 133.539 67.788 133.914 67.788H138.203C138.578 67.788 138.75 67.9755 138.75 68.2567C138.75 68.5458 138.578 68.7489 138.203 68.7489H133.914C133.539 68.7489 133.367 68.5458 133.367 68.2567ZM139.836 70.952C139.836 70.6395 140.023 70.4442 140.328 70.4442C140.523 70.4442 140.664 70.5458 140.883 70.8505C141.336 71.5223 142.055 71.8739 142.961 71.8739C144.086 71.8739 144.867 71.3661 144.867 70.4911C144.867 69.8192 144.352 69.3817 143.578 69.1864L142.078 68.827C140.695 68.4911 139.992 67.8114 139.992 66.6708C139.992 65.2411 141.125 64.3427 142.875 64.3427C143.68 64.3427 144.406 64.5458 144.953 64.913C145.461 65.2723 145.75 65.7567 145.75 66.1317C145.75 66.4208 145.562 66.6005 145.281 66.6005C145.062 66.6005 144.953 66.5223 144.695 66.2177C144.227 65.5927 143.711 65.2567 142.836 65.2567C141.766 65.2567 141.062 65.7489 141.062 66.5927C141.062 67.2567 141.5 67.6552 142.383 67.8817L143.828 68.2411C145.211 68.5927 145.93 69.2255 145.93 70.3973C145.93 71.8973 144.719 72.788 142.906 72.788C142.102 72.788 141.352 72.5927 140.773 72.2567C140.195 71.9208 139.836 71.4052 139.836 70.952ZM147.844 62.4052C147.844 61.9755 148.18 61.663 148.586 61.663C149.023 61.663 149.352 61.9755 149.352 62.4052C149.352 62.8348 149.023 63.163 148.586 63.163C148.18 63.163 147.844 62.8348 147.844 62.4052ZM149.133 72.1239C149.133 72.5302 148.898 72.7255 148.594 72.7255C148.289 72.7255 148.055 72.5223 148.055 72.1239V65.0067C148.055 64.6005 148.297 64.4052 148.602 64.4052C148.906 64.4052 149.133 64.6083 149.133 65.0067V72.1239ZM151.328 72.0614C151.328 71.8348 151.414 71.6708 151.609 71.3973L155.828 65.5145V65.4442H151.773C151.422 65.4442 151.242 65.2177 151.242 64.9598C151.242 64.6942 151.422 64.4833 151.773 64.4833H156.445C156.891 64.4833 157.125 64.7177 157.125 65.0614C157.125 65.288 157.039 65.452 156.844 65.7255L152.617 71.6161V71.6864H156.75C157.094 71.6864 157.289 71.8973 157.289 72.163C157.289 72.4286 157.094 72.6473 156.75 72.6473H152.008C151.562 72.6473 151.328 72.413 151.328 72.0614ZM158.727 69.202V67.9598C158.727 65.7723 160.094 64.3427 162.055 64.3427C163.961 64.3427 165.305 65.7333 165.305 67.8427C165.305 68.5927 165.164 68.8192 164.68 68.8192H159.812V69.2645C159.812 70.8661 160.734 71.8192 162.219 71.8192C163.102 71.8192 163.648 71.4442 164.039 71.038C164.391 70.6864 164.477 70.6317 164.664 70.6317C164.914 70.6317 165.102 70.8427 165.102 71.1083C165.102 71.327 164.938 71.6708 164.664 71.9364C164.172 72.4598 163.234 72.788 162.172 72.788C160.031 72.788 158.727 71.4442 158.727 69.202ZM159.812 67.8817H164.219V67.8583C164.219 66.2802 163.375 65.2958 162.055 65.2958C160.719 65.2958 159.812 66.3114 159.812 67.8583V67.8817ZM172.773 71.2723C172.562 72.0302 171.594 72.788 170.25 72.788C168.359 72.788 167.102 71.4598 167.102 69.413V67.7255C167.102 65.6395 168.422 64.3427 170.281 64.3427C171.547 64.3427 172.422 64.9833 172.727 65.7723H172.781V61.9833C172.781 61.6161 172.984 61.3817 173.32 61.3817C173.656 61.3817 173.859 61.6161 173.859 61.9833V72.1161C173.859 72.4989 173.672 72.7177 173.344 72.7177C173.023 72.7177 172.836 72.4989 172.836 72.1161V71.2723H172.773ZM168.195 69.1317C168.195 70.8348 169.07 71.8192 170.453 71.8192C171.891 71.8192 172.781 70.7645 172.781 69.2567V67.7489C172.781 66.3427 171.797 65.3114 170.414 65.3114C169.078 65.3114 168.195 66.2802 168.195 67.9989V69.1317ZM179.305 69.2723V67.8427C179.305 65.7098 180.531 64.3427 182.609 64.3427C183.258 64.3427 183.953 64.4833 184.531 64.8427C185.078 65.1786 185.539 65.7177 185.539 66.202C185.539 66.4911 185.383 66.7255 185.062 66.7255C184.75 66.7255 184.602 66.5067 184.469 66.3114C184.086 65.7489 183.516 65.3192 182.609 65.3192C181.164 65.3192 180.391 66.3583 180.391 67.913V69.2098C180.391 70.7567 181.148 71.8036 182.625 71.8036C183.445 71.8036 184.062 71.452 184.492 70.8348C184.617 70.6552 184.789 70.4208 185.078 70.4208C185.312 70.4208 185.555 70.577 185.555 70.9364C185.555 71.413 185.125 71.9442 184.539 72.3036C183.938 72.663 183.273 72.788 182.648 72.788C180.523 72.788 179.305 71.4286 179.305 69.2723ZM192.344 71.4911C191.891 72.3036 190.984 72.788 189.914 72.788C188.32 72.788 187.25 71.7802 187.25 70.2958C187.25 68.8192 188.312 67.913 190.086 67.913H192.359V67.0145C192.359 65.8817 191.68 65.288 190.422 65.288C189.656 65.288 189.117 65.577 188.641 66.2098C188.477 66.4208 188.328 66.4833 188.117 66.4833C187.859 66.4833 187.688 66.3114 187.688 66.038C187.688 65.6083 188.031 65.1395 188.633 64.7802C189.102 64.4989 189.703 64.3427 190.484 64.3427C192.383 64.3427 193.438 65.2802 193.438 66.9833V72.1161C193.438 72.4911 193.242 72.7177 192.914 72.7177C192.586 72.7177 192.391 72.4911 192.391 72.1161V71.4911H192.344ZM188.367 70.2723C188.367 71.2098 189.086 71.8427 190.172 71.8427C191.414 71.8427 192.359 70.9833 192.359 69.8583V68.8505H190.109C188.992 68.8505 188.367 69.3583 188.367 70.2723ZM202.32 72.1239C202.32 72.4989 202.109 72.7255 201.773 72.7255C201.438 72.7255 201.234 72.4989 201.234 72.1239V67.4052C201.234 66.077 200.547 65.3114 199.289 65.3114C197.82 65.3114 196.938 66.3817 196.938 67.9989V72.1239C196.938 72.4989 196.734 72.7255 196.398 72.7255C196.062 72.7255 195.859 72.4989 195.859 72.1239V65.0145C195.859 64.6395 196.07 64.4052 196.406 64.4052C196.734 64.4052 196.938 64.6395 196.938 65.0145V66.0067H196.992C197.32 64.9989 198.203 64.3427 199.531 64.3427C201.266 64.3427 202.32 65.3427 202.32 67.0848V72.1239ZM210.055 71.2723C209.844 72.0302 208.875 72.788 207.531 72.788C205.641 72.788 204.383 71.4598 204.383 69.413V67.7255C204.383 65.6395 205.703 64.3427 207.562 64.3427C208.828 64.3427 209.703 64.9833 210.008 65.7723H210.062V61.9833C210.062 61.6161 210.266 61.3817 210.602 61.3817C210.938 61.3817 211.141 61.6161 211.141 61.9833V72.1161C211.141 72.4989 210.953 72.7177 210.625 72.7177C210.305 72.7177 210.117 72.4989 210.117 72.1161V71.2723H210.055ZM205.477 69.1317C205.477 70.8348 206.352 71.8192 207.734 71.8192C209.172 71.8192 210.062 70.7645 210.062 69.2567V67.7489C210.062 66.3427 209.078 65.3114 207.695 65.3114C206.359 65.3114 205.477 66.2802 205.477 67.9989V69.1317ZM213.266 75.0223C213.266 74.7567 213.484 74.5927 213.805 74.5927C213.914 74.5927 214.07 74.6083 214.242 74.6083C214.844 74.6083 215.344 74.0848 215.57 73.3192L215.734 72.7723L213.023 65.3895C212.961 65.2255 212.93 65.0848 212.93 64.9755C212.93 64.6708 213.164 64.452 213.484 64.452C213.742 64.452 213.93 64.6239 214.055 64.9989L216.266 71.5302H216.312L218.508 64.9989C218.633 64.6239 218.812 64.452 219.07 64.452C219.375 64.452 219.602 64.663 219.602 64.9677C219.602 65.077 219.578 65.202 219.508 65.3817L216.633 73.3661C216.078 74.9208 215.336 75.5458 214.156 75.5458C213.836 75.5458 213.57 75.4755 213.422 75.3505C213.32 75.2645 213.266 75.1552 213.266 75.0223ZM227.523 64.3427C229.461 64.3427 230.953 65.6317 230.953 67.9208V69.2098C230.953 71.4989 229.461 72.788 227.523 72.788C225.57 72.788 224.086 71.4989 224.086 69.2098V67.9208C224.086 65.6239 225.57 64.3427 227.523 64.3427ZM227.523 65.3114C226.117 65.3114 225.18 66.3583 225.18 68.038V69.0927C225.18 70.7958 226.117 71.8192 227.523 71.8192C228.938 71.8192 229.867 70.8036 229.867 69.0927V68.038C229.867 66.3661 228.93 65.3114 227.523 65.3114ZM234.656 72.1239C234.656 72.4989 234.453 72.7255 234.117 72.7255C233.781 72.7255 233.578 72.4989 233.578 72.1239V65.413H232.766C232.453 65.413 232.25 65.2333 232.25 64.9442C232.25 64.6552 232.445 64.4833 232.766 64.4833H233.578V63.6083C233.578 62.0927 234.312 61.3739 235.797 61.3739C236.188 61.3739 236.523 61.452 236.695 61.577C236.828 61.6786 236.906 61.8036 236.906 61.9677C236.906 62.2177 236.75 62.3895 236.484 62.3895C236.195 62.3895 236.062 62.327 235.695 62.327C234.992 62.327 234.656 62.702 234.656 63.5458V64.4833H236.016C236.328 64.4833 236.531 64.6552 236.531 64.952C236.531 65.2333 236.328 65.413 236.016 65.413H234.656V72.1239ZM246.094 71.4911C245.641 72.3036 244.734 72.788 243.664 72.788C242.07 72.788 241 71.7802 241 70.2958C241 68.8192 242.062 67.913 243.836 67.913H246.109V67.0145C246.109 65.8817 245.43 65.288 244.172 65.288C243.406 65.288 242.867 65.577 242.391 66.2098C242.227 66.4208 242.078 66.4833 241.867 66.4833C241.609 66.4833 241.438 66.3114 241.438 66.038C241.438 65.6083 241.781 65.1395 242.383 64.7802C242.852 64.4989 243.453 64.3427 244.234 64.3427C246.133 64.3427 247.188 65.2802 247.188 66.9833V72.1161C247.188 72.4911 246.992 72.7177 246.664 72.7177C246.336 72.7177 246.141 72.4911 246.141 72.1161V71.4911H246.094ZM242.117 70.2723C242.117 71.2098 242.836 71.8427 243.922 71.8427C245.164 71.8427 246.109 70.9833 246.109 69.8583V68.8505H243.859C242.742 68.8505 242.117 69.3583 242.117 70.2723ZM258.125 71.1473C257.836 71.7958 257.039 72.5302 255.719 72.5302C253.945 72.5302 252.508 71.2489 252.508 69.1473V67.7489C252.508 65.6005 253.977 64.3427 255.711 64.3427C257.07 64.3427 257.906 65.1317 258.18 65.788H258.234V65.0145C258.234 64.6083 258.438 64.413 258.742 64.413C259.047 64.413 259.258 64.6083 259.258 65.0145V72.4833C259.258 74.6083 257.906 75.663 255.914 75.663C254.992 75.663 254.211 75.4364 253.656 75.0692C253.172 74.7567 252.82 74.3192 252.82 73.9364C252.82 73.6552 253.008 73.4598 253.289 73.4598C253.578 73.4598 253.711 73.663 253.922 73.8739C254.211 74.1942 254.758 74.6942 255.867 74.6942C257.32 74.6942 258.188 73.8583 258.188 72.5302V71.1473H258.125ZM253.602 68.8973C253.602 70.5145 254.578 71.5692 255.945 71.5692C257.398 71.5692 258.18 70.3739 258.18 69.1239V67.8036C258.18 66.4911 257.359 65.3114 255.906 65.3114C254.555 65.3114 253.602 66.3427 253.602 67.9989V68.8973ZM261.672 62.4052C261.672 61.9755 262.008 61.663 262.414 61.663C262.852 61.663 263.18 61.9755 263.18 62.4052C263.18 62.8348 262.852 63.163 262.414 63.163C262.008 63.163 261.672 62.8348 261.672 62.4052ZM262.961 72.1239C262.961 72.5302 262.727 72.7255 262.422 72.7255C262.117 72.7255 261.883 72.5223 261.883 72.1239V65.0067C261.883 64.6005 262.125 64.4052 262.43 64.4052C262.734 64.4052 262.961 64.6083 262.961 65.0067V72.1239ZM267.094 71.6942L264.844 65.3739C264.781 65.2098 264.758 65.077 264.758 64.9598C264.758 64.6708 265 64.4364 265.289 64.4364C265.586 64.4364 265.758 64.6005 265.883 64.9911L267.969 71.538H268.016L270.211 64.9911C270.344 64.5927 270.516 64.4364 270.797 64.4364C271.078 64.4364 271.305 64.663 271.305 64.9598C271.305 65.0614 271.281 65.1942 271.211 65.3739L268.914 71.6942C268.609 72.538 268.438 72.7255 268.016 72.7255C267.57 72.7255 267.383 72.5145 267.094 71.6942ZM272.539 69.202V67.9598C272.539 65.7723 273.906 64.3427 275.867 64.3427C277.773 64.3427 279.117 65.7333 279.117 67.8427C279.117 68.5927 278.977 68.8192 278.492 68.8192H273.625V69.2645C273.625 70.8661 274.547 71.8192 276.031 71.8192C276.914 71.8192 277.461 71.4442 277.852 71.038C278.203 70.6864 278.289 70.6317 278.477 70.6317C278.727 70.6317 278.914 70.8427 278.914 71.1083C278.914 71.327 278.75 71.6708 278.477 71.9364C277.984 72.4598 277.047 72.788 275.984 72.788C273.844 72.788 272.539 71.4442 272.539 69.202ZM273.625 67.8817H278.031V67.8583C278.031 66.2802 277.188 65.2958 275.867 65.2958C274.531 65.2958 273.625 66.3114 273.625 67.8583V67.8817ZM287.711 72.1239C287.711 72.4989 287.5 72.7255 287.164 72.7255C286.828 72.7255 286.625 72.4989 286.625 72.1239V67.4052C286.625 66.077 285.938 65.3114 284.68 65.3114C283.211 65.3114 282.328 66.3817 282.328 67.9989V72.1239C282.328 72.4989 282.125 72.7255 281.789 72.7255C281.453 72.7255 281.25 72.4989 281.25 72.1239V65.0145C281.25 64.6395 281.461 64.4052 281.797 64.4052C282.125 64.4052 282.328 64.6395 282.328 65.0145V66.0067H282.383C282.711 64.9989 283.594 64.3427 284.922 64.3427C286.656 64.3427 287.711 65.3427 287.711 67.0848V72.1239ZM293.805 70.577V65.413H293.062C292.75 65.413 292.547 65.2333 292.547 64.952C292.547 64.6552 292.742 64.4833 293.062 64.4833H293.805V63.0145C293.805 62.6395 294.008 62.413 294.344 62.413C294.68 62.413 294.883 62.6395 294.883 63.0145V64.4833H296.219C296.539 64.4833 296.734 64.6552 296.734 64.952C296.734 65.2333 296.531 65.413 296.219 65.413H294.883V70.6395C294.883 71.5536 295.164 71.8192 295.992 71.8192C296.258 71.8192 296.414 71.7958 296.555 71.7958C296.812 71.7958 296.992 71.952 296.992 72.2098C296.992 72.4052 296.898 72.5536 296.695 72.6395C296.516 72.7255 296.242 72.7723 295.812 72.7723C294.352 72.7723 293.805 72.2255 293.805 70.577ZM298.531 75.0223C298.531 74.7567 298.75 74.5927 299.07 74.5927C299.18 74.5927 299.336 74.6083 299.508 74.6083C300.109 74.6083 300.609 74.0848 300.836 73.3192L301 72.7723L298.289 65.3895C298.227 65.2255 298.195 65.0848 298.195 64.9755C298.195 64.6708 298.43 64.452 298.75 64.452C299.008 64.452 299.195 64.6239 299.32 64.9989L301.531 71.5302H301.578L303.773 64.9989C303.898 64.6239 304.078 64.452 304.336 64.452C304.641 64.452 304.867 64.663 304.867 64.9677C304.867 65.077 304.844 65.202 304.773 65.3817L301.898 73.3661C301.344 74.9208 300.602 75.5458 299.422 75.5458C299.102 75.5458 298.836 75.4755 298.688 75.3505C298.586 75.2645 298.531 75.1552 298.531 75.0223ZM307.742 74.9833C307.742 75.3505 307.531 75.5848 307.195 75.5848C306.859 75.5848 306.664 75.3505 306.664 74.9833V65.0145C306.664 64.6317 306.852 64.4052 307.172 64.4052C307.5 64.4052 307.688 64.6317 307.688 65.0145V65.8505H307.742C308.039 65.0536 308.945 64.3427 310.266 64.3427C312.164 64.3427 313.398 65.6864 313.398 67.8036V69.3192C313.398 71.4911 312.109 72.788 310.219 72.788C308.969 72.788 308.141 72.1708 307.797 71.3583H307.742V74.9833ZM307.742 69.3817C307.742 70.8036 308.688 71.8192 310.078 71.8192C311.438 71.8192 312.32 70.8505 312.32 69.0614V68.0614C312.32 66.2958 311.461 65.3114 310.047 65.3114C308.609 65.3114 307.742 66.3427 307.742 67.8739V69.3817ZM315.227 69.202V67.9598C315.227 65.7723 316.594 64.3427 318.555 64.3427C320.461 64.3427 321.805 65.7333 321.805 67.8427C321.805 68.5927 321.664 68.8192 321.18 68.8192H316.312V69.2645C316.312 70.8661 317.234 71.8192 318.719 71.8192C319.602 71.8192 320.148 71.4442 320.539 71.038C320.891 70.6864 320.977 70.6317 321.164 70.6317C321.414 70.6317 321.602 70.8427 321.602 71.1083C321.602 71.327 321.438 71.6708 321.164 71.9364C320.672 72.4598 319.734 72.788 318.672 72.788C316.531 72.788 315.227 71.4442 315.227 69.202ZM316.312 67.8817H320.719V67.8583C320.719 66.2802 319.875 65.2958 318.555 65.2958C317.219 65.2958 316.312 66.3114 316.312 67.8583V67.8817ZM328.227 71.6942L326.461 65.3817C326.422 65.2411 326.406 65.1161 326.406 65.0145C326.406 64.6786 326.648 64.4442 326.977 64.4442C327.258 64.4442 327.469 64.6552 327.562 65.0692L329.031 71.2411H329.078L330.758 65.4598C330.992 64.6005 331.125 64.4286 331.562 64.4286C331.992 64.4286 332.117 64.5927 332.367 65.4598L334.078 71.2411H334.133L335.633 65.038C335.727 64.6473 335.914 64.4364 336.18 64.4364C336.484 64.4364 336.695 64.6395 336.695 64.9442C336.695 65.038 336.68 65.1239 336.633 65.2958L334.914 71.6942C334.695 72.538 334.539 72.7255 334.133 72.7255C333.719 72.7255 333.547 72.5458 333.289 71.6942L331.578 66.0302H331.547L329.867 71.6942C329.625 72.538 329.484 72.7255 329.062 72.7255C328.617 72.7255 328.461 72.5458 328.227 71.6942ZM338.422 62.4052C338.422 61.9755 338.758 61.663 339.164 61.663C339.602 61.663 339.93 61.9755 339.93 62.4052C339.93 62.8348 339.602 63.163 339.164 63.163C338.758 63.163 338.422 62.8348 338.422 62.4052ZM339.711 72.1239C339.711 72.5302 339.477 72.7255 339.172 72.7255C338.867 72.7255 338.633 72.5223 338.633 72.1239V65.0067C338.633 64.6005 338.875 64.4052 339.18 64.4052C339.484 64.4052 339.711 64.6083 339.711 65.0067V72.1239ZM348.758 72.1239C348.758 72.4989 348.547 72.7255 348.211 72.7255C347.875 72.7255 347.672 72.4989 347.672 72.1239V67.4052C347.672 66.077 346.984 65.3114 345.727 65.3114C344.258 65.3114 343.375 66.3817 343.375 67.9989V72.1239C343.375 72.4989 343.172 72.7255 342.836 72.7255C342.5 72.7255 342.297 72.4989 342.297 72.1239V65.0145C342.297 64.6395 342.508 64.4052 342.844 64.4052C343.172 64.4052 343.375 64.6395 343.375 65.0145V66.0067H343.43C343.758 64.9989 344.641 64.3427 345.969 64.3427C347.703 64.3427 348.758 65.3427 348.758 67.0848V72.1239ZM354.25 62.4052C354.25 61.9755 354.586 61.663 354.992 61.663C355.43 61.663 355.758 61.9755 355.758 62.4052C355.758 62.8348 355.43 63.163 354.992 63.163C354.586 63.163 354.25 62.8348 354.25 62.4052ZM355.539 72.1239C355.539 72.5302 355.305 72.7255 355 72.7255C354.695 72.7255 354.461 72.5223 354.461 72.1239V65.0067C354.461 64.6005 354.703 64.4052 355.008 64.4052C355.312 64.4052 355.539 64.6083 355.539 65.0067V72.1239ZM358.586 70.577V65.413H357.844C357.531 65.413 357.328 65.2333 357.328 64.952C357.328 64.6552 357.523 64.4833 357.844 64.4833H358.586V63.0145C358.586 62.6395 358.789 62.413 359.125 62.413C359.461 62.413 359.664 62.6395 359.664 63.0145V64.4833H361C361.32 64.4833 361.516 64.6552 361.516 64.952C361.516 65.2333 361.312 65.413 361 65.413H359.664V70.6395C359.664 71.5536 359.945 71.8192 360.773 71.8192C361.039 71.8192 361.195 71.7958 361.336 71.7958C361.594 71.7958 361.773 71.952 361.773 72.2098C361.773 72.4052 361.68 72.5536 361.477 72.6395C361.297 72.7255 361.023 72.7723 360.594 72.7723C359.133 72.7723 358.586 72.2255 358.586 70.577ZM362.883 70.952C362.883 70.6395 363.07 70.4442 363.375 70.4442C363.57 70.4442 363.711 70.5458 363.93 70.8505C364.383 71.5223 365.102 71.8739 366.008 71.8739C367.133 71.8739 367.914 71.3661 367.914 70.4911C367.914 69.8192 367.398 69.3817 366.625 69.1864L365.125 68.827C363.742 68.4911 363.039 67.8114 363.039 66.6708C363.039 65.2411 364.172 64.3427 365.922 64.3427C366.727 64.3427 367.453 64.5458 368 64.913C368.508 65.2723 368.797 65.7567 368.797 66.1317C368.797 66.4208 368.609 66.6005 368.328 66.6005C368.109 66.6005 368 66.5223 367.742 66.2177C367.273 65.5927 366.758 65.2567 365.883 65.2567C364.812 65.2567 364.109 65.7489 364.109 66.5927C364.109 67.2567 364.547 67.6552 365.43 67.8817L366.875 68.2411C368.258 68.5927 368.977 69.2255 368.977 70.3973C368.977 71.8973 367.766 72.788 365.953 72.788C365.148 72.788 364.398 72.5927 363.82 72.2567C363.242 71.9208 362.883 71.4052 362.883 70.952ZM385.172 72.1239C385.172 72.4989 384.969 72.7255 384.633 72.7255C384.297 72.7255 384.094 72.4989 384.094 72.1239V67.1864C384.094 65.9755 383.375 65.3114 382.242 65.3114C381.062 65.3114 380.258 66.2098 380.258 67.3583V72.1239C380.258 72.4989 380.047 72.7255 379.711 72.7255C379.375 72.7255 379.18 72.4989 379.18 72.1239V67.2411C379.18 66.038 378.43 65.3114 377.289 65.3114C376.117 65.3114 375.336 66.1786 375.336 67.3817V72.1239C375.336 72.4989 375.133 72.7255 374.797 72.7255C374.461 72.7255 374.258 72.4989 374.258 72.1239V65.0145C374.258 64.6395 374.469 64.4052 374.805 64.4052C375.141 64.4052 375.336 64.6395 375.336 65.0145V65.7958H375.398C375.68 64.952 376.453 64.3427 377.625 64.3427C378.828 64.3427 379.672 64.9833 379.938 65.9286H379.992C380.352 65.0145 381.219 64.3427 382.484 64.3427C384.156 64.3427 385.172 65.2645 385.172 66.913V72.1239ZM392.25 71.4911C391.797 72.3036 390.891 72.788 389.82 72.788C388.227 72.788 387.156 71.7802 387.156 70.2958C387.156 68.8192 388.219 67.913 389.992 67.913H392.266V67.0145C392.266 65.8817 391.586 65.288 390.328 65.288C389.562 65.288 389.023 65.577 388.547 66.2098C388.383 66.4208 388.234 66.4833 388.023 66.4833C387.766 66.4833 387.594 66.3114 387.594 66.038C387.594 65.6083 387.938 65.1395 388.539 64.7802C389.008 64.4989 389.609 64.3427 390.391 64.3427C392.289 64.3427 393.344 65.2802 393.344 66.9833V72.1161C393.344 72.4911 393.148 72.7177 392.82 72.7177C392.492 72.7177 392.297 72.4911 392.297 72.1161V71.4911H392.25ZM388.273 70.2723C388.273 71.2098 388.992 71.8427 390.078 71.8427C391.32 71.8427 392.266 70.9833 392.266 69.8583V68.8505H390.016C388.898 68.8505 388.273 69.3583 388.273 70.2723ZM396.227 70.577V65.413H395.484C395.172 65.413 394.969 65.2333 394.969 64.952C394.969 64.6552 395.164 64.4833 395.484 64.4833H396.227V63.0145C396.227 62.6395 396.43 62.413 396.766 62.413C397.102 62.413 397.305 62.6395 397.305 63.0145V64.4833H398.641C398.961 64.4833 399.156 64.6552 399.156 64.952C399.156 65.2333 398.953 65.413 398.641 65.413H397.305V70.6395C397.305 71.5536 397.586 71.8192 398.414 71.8192C398.68 71.8192 398.836 71.7958 398.977 71.7958C399.234 71.7958 399.414 71.952 399.414 72.2098C399.414 72.4052 399.32 72.5536 399.117 72.6395C398.938 72.7255 398.664 72.7723 398.234 72.7723C396.773 72.7723 396.227 72.2255 396.227 70.577ZM400.617 69.2723V67.8427C400.617 65.7098 401.844 64.3427 403.922 64.3427C404.57 64.3427 405.266 64.4833 405.844 64.8427C406.391 65.1786 406.852 65.7177 406.852 66.202C406.852 66.4911 406.695 66.7255 406.375 66.7255C406.062 66.7255 405.914 66.5067 405.781 66.3114C405.398 65.7489 404.828 65.3192 403.922 65.3192C402.477 65.3192 401.703 66.3583 401.703 67.913V69.2098C401.703 70.7567 402.461 71.8036 403.938 71.8036C404.758 71.8036 405.375 71.452 405.805 70.8348C405.93 70.6552 406.102 70.4208 406.391 70.4208C406.625 70.4208 406.867 70.577 406.867 70.9364C406.867 71.413 406.438 71.9442 405.852 72.3036C405.25 72.663 404.586 72.788 403.961 72.788C401.836 72.788 400.617 71.4286 400.617 69.2723ZM415.547 72.1239C415.547 72.4911 415.336 72.7255 415 72.7255C414.664 72.7255 414.469 72.4989 414.469 72.1239V67.413C414.469 66.0848 413.727 65.3114 412.484 65.3114C411.07 65.3114 410.141 66.3583 410.141 67.9989V72.1239C410.141 72.4989 409.938 72.7255 409.602 72.7255C409.266 72.7255 409.062 72.4989 409.062 72.1239V61.9833C409.062 61.6161 409.266 61.3817 409.602 61.3817C409.938 61.3817 410.141 61.6161 410.141 61.9833V66.0067H410.195C410.484 65.0223 411.539 64.3427 412.781 64.3427C414.492 64.3427 415.547 65.3973 415.547 67.0927V72.1239ZM423.109 71.2333C422.836 71.9755 422.094 72.788 420.547 72.788C419.008 72.788 417.82 72.0067 417.82 70.163V64.9755C417.82 64.5692 418.055 64.3973 418.359 64.3973C418.664 64.3973 418.898 64.5692 418.898 64.9755V69.8973C418.898 71.2958 419.766 71.8192 420.797 71.8192C422.203 71.8192 423.172 70.8583 423.172 69.6864V64.9755C423.172 64.5692 423.406 64.3973 423.711 64.3973C424.016 64.3973 424.258 64.5692 424.258 64.9755V72.1395C424.258 72.5458 424.016 72.7177 423.711 72.7177C423.406 72.7177 423.172 72.5458 423.172 72.1395V71.2333H423.109ZM427.867 74.9833C427.867 75.3505 427.656 75.5848 427.32 75.5848C426.984 75.5848 426.789 75.3505 426.789 74.9833V65.0145C426.789 64.6317 426.977 64.4052 427.297 64.4052C427.625 64.4052 427.812 64.6317 427.812 65.0145V65.8505H427.867C428.164 65.0536 429.07 64.3427 430.391 64.3427C432.289 64.3427 433.523 65.6864 433.523 67.8036V69.3192C433.523 71.4911 432.234 72.788 430.344 72.788C429.094 72.788 428.266 72.1708 427.922 71.3583H427.867V74.9833ZM427.867 69.3817C427.867 70.8036 428.812 71.8192 430.203 71.8192C431.562 71.8192 432.445 70.8505 432.445 69.0614V68.0614C432.445 66.2958 431.586 65.3114 430.172 65.3114C428.734 65.3114 427.867 66.3427 427.867 67.8739V69.3817ZM435.164 70.952C435.164 70.6395 435.352 70.4442 435.656 70.4442C435.852 70.4442 435.992 70.5458 436.211 70.8505C436.664 71.5223 437.383 71.8739 438.289 71.8739C439.414 71.8739 440.195 71.3661 440.195 70.4911C440.195 69.8192 439.68 69.3817 438.906 69.1864L437.406 68.827C436.023 68.4911 435.32 67.8114 435.32 66.6708C435.32 65.2411 436.453 64.3427 438.203 64.3427C439.008 64.3427 439.734 64.5458 440.281 64.913C440.789 65.2723 441.078 65.7567 441.078 66.1317C441.078 66.4208 440.891 66.6005 440.609 66.6005C440.391 66.6005 440.281 66.5223 440.023 66.2177C439.555 65.5927 439.039 65.2567 438.164 65.2567C437.094 65.2567 436.391 65.7489 436.391 66.5927C436.391 67.2567 436.828 67.6552 437.711 67.8817L439.156 68.2411C440.539 68.5927 441.258 69.2255 441.258 70.3973C441.258 71.8973 440.047 72.788 438.234 72.788C437.43 72.788 436.68 72.5927 436.102 72.2567C435.523 71.9208 435.164 71.4052 435.164 70.952ZM451.156 71.4911C450.703 72.3036 449.797 72.788 448.727 72.788C447.133 72.788 446.062 71.7802 446.062 70.2958C446.062 68.8192 447.125 67.913 448.898 67.913H451.172V67.0145C451.172 65.8817 450.492 65.288 449.234 65.288C448.469 65.288 447.93 65.577 447.453 66.2098C447.289 66.4208 447.141 66.4833 446.93 66.4833C446.672 66.4833 446.5 66.3114 446.5 66.038C446.5 65.6083 446.844 65.1395 447.445 64.7802C447.914 64.4989 448.516 64.3427 449.297 64.3427C451.195 64.3427 452.25 65.2802 452.25 66.9833V72.1161C452.25 72.4911 452.055 72.7177 451.727 72.7177C451.398 72.7177 451.203 72.4911 451.203 72.1161V71.4911H451.156ZM447.18 70.2723C447.18 71.2098 447.898 71.8427 448.984 71.8427C450.227 71.8427 451.172 70.9833 451.172 69.8583V68.8505H448.922C447.805 68.8505 447.18 69.3583 447.18 70.2723ZM459.953 71.1473C459.664 71.7958 458.867 72.5302 457.547 72.5302C455.773 72.5302 454.336 71.2489 454.336 69.1473V67.7489C454.336 65.6005 455.805 64.3427 457.539 64.3427C458.898 64.3427 459.734 65.1317 460.008 65.788H460.062V65.0145C460.062 64.6083 460.266 64.413 460.57 64.413C460.875 64.413 461.086 64.6083 461.086 65.0145V72.4833C461.086 74.6083 459.734 75.663 457.742 75.663C456.82 75.663 456.039 75.4364 455.484 75.0692C455 74.7567 454.648 74.3192 454.648 73.9364C454.648 73.6552 454.836 73.4598 455.117 73.4598C455.406 73.4598 455.539 73.663 455.75 73.8739C456.039 74.1942 456.586 74.6942 457.695 74.6942C459.148 74.6942 460.016 73.8583 460.016 72.5302V71.1473H459.953ZM455.43 68.8973C455.43 70.5145 456.406 71.5692 457.773 71.5692C459.227 71.5692 460.008 70.3739 460.008 69.1239V67.8036C460.008 66.4911 459.188 65.3114 457.734 65.3114C456.383 65.3114 455.43 66.3427 455.43 67.9989V68.8973ZM468.25 71.4911C467.797 72.3036 466.891 72.788 465.82 72.788C464.227 72.788 463.156 71.7802 463.156 70.2958C463.156 68.8192 464.219 67.913 465.992 67.913H468.266V67.0145C468.266 65.8817 467.586 65.288 466.328 65.288C465.562 65.288 465.023 65.577 464.547 66.2098C464.383 66.4208 464.234 66.4833 464.023 66.4833C463.766 66.4833 463.594 66.3114 463.594 66.038C463.594 65.6083 463.938 65.1395 464.539 64.7802C465.008 64.4989 465.609 64.3427 466.391 64.3427C468.289 64.3427 469.344 65.2802 469.344 66.9833V72.1161C469.344 72.4911 469.148 72.7177 468.82 72.7177C468.492 72.7177 468.297 72.4911 468.297 72.1161V71.4911H468.25ZM464.273 70.2723C464.273 71.2098 464.992 71.8427 466.078 71.8427C467.32 71.8427 468.266 70.9833 468.266 69.8583V68.8505H466.016C464.898 68.8505 464.273 69.3583 464.273 70.2723ZM471.625 62.4052C471.625 61.9755 471.961 61.663 472.367 61.663C472.805 61.663 473.133 61.9755 473.133 62.4052C473.133 62.8348 472.805 63.163 472.367 63.163C471.961 63.163 471.625 62.8348 471.625 62.4052ZM472.914 72.1239C472.914 72.5302 472.68 72.7255 472.375 72.7255C472.07 72.7255 471.836 72.5223 471.836 72.1239V65.0067C471.836 64.6005 472.078 64.4052 472.383 64.4052C472.688 64.4052 472.914 64.6083 472.914 65.0067V72.1239ZM481.961 72.1239C481.961 72.4989 481.75 72.7255 481.414 72.7255C481.078 72.7255 480.875 72.4989 480.875 72.1239V67.4052C480.875 66.077 480.188 65.3114 478.93 65.3114C477.461 65.3114 476.578 66.3817 476.578 67.9989V72.1239C476.578 72.4989 476.375 72.7255 476.039 72.7255C475.703 72.7255 475.5 72.4989 475.5 72.1239V65.0145C475.5 64.6395 475.711 64.4052 476.047 64.4052C476.375 64.4052 476.578 64.6395 476.578 65.0145V66.0067H476.633C476.961 64.9989 477.844 64.3427 479.172 64.3427C480.906 64.3427 481.961 65.3427 481.961 67.0848V72.1239ZM483.852 70.952C483.852 70.6395 484.039 70.4442 484.344 70.4442C484.539 70.4442 484.68 70.5458 484.898 70.8505C485.352 71.5223 486.07 71.8739 486.977 71.8739C488.102 71.8739 488.883 71.3661 488.883 70.4911C488.883 69.8192 488.367 69.3817 487.594 69.1864L486.094 68.827C484.711 68.4911 484.008 67.8114 484.008 66.6708C484.008 65.2411 485.141 64.3427 486.891 64.3427C487.695 64.3427 488.422 64.5458 488.969 64.913C489.477 65.2723 489.766 65.7567 489.766 66.1317C489.766 66.4208 489.578 66.6005 489.297 66.6005C489.078 66.6005 488.969 66.5223 488.711 66.2177C488.242 65.5927 487.727 65.2567 486.852 65.2567C485.781 65.2567 485.078 65.7489 485.078 66.5927C485.078 67.2567 485.516 67.6552 486.398 67.8817L487.844 68.2411C489.227 68.5927 489.945 69.2255 489.945 70.3973C489.945 71.8973 488.734 72.788 486.922 72.788C486.117 72.788 485.367 72.5927 484.789 72.2567C484.211 71.9208 483.852 71.4052 483.852 70.952ZM492.461 70.577V65.413H491.719C491.406 65.413 491.203 65.2333 491.203 64.952C491.203 64.6552 491.398 64.4833 491.719 64.4833H492.461V63.0145C492.461 62.6395 492.664 62.413 493 62.413C493.336 62.413 493.539 62.6395 493.539 63.0145V64.4833H494.875C495.195 64.4833 495.391 64.6552 495.391 64.952C495.391 65.2333 495.188 65.413 494.875 65.413H493.539V70.6395C493.539 71.5536 493.82 71.8192 494.648 71.8192C494.914 71.8192 495.07 71.7958 495.211 71.7958C495.469 71.7958 495.648 71.952 495.648 72.2098C495.648 72.4052 495.555 72.5536 495.352 72.6395C495.172 72.7255 494.898 72.7723 494.469 72.7723C493.008 72.7723 492.461 72.2255 492.461 70.577ZM500.898 70.577V65.413H500.156C499.844 65.413 499.641 65.2333 499.641 64.952C499.641 64.6552 499.836 64.4833 500.156 64.4833H500.898V63.0145C500.898 62.6395 501.102 62.413 501.438 62.413C501.773 62.413 501.977 62.6395 501.977 63.0145V64.4833H503.312C503.633 64.4833 503.828 64.6552 503.828 64.952C503.828 65.2333 503.625 65.413 503.312 65.413H501.977V70.6395C501.977 71.5536 502.258 71.8192 503.086 71.8192C503.352 71.8192 503.508 71.7958 503.648 71.7958C503.906 71.7958 504.086 71.952 504.086 72.2098C504.086 72.4052 503.992 72.5536 503.789 72.6395C503.609 72.7255 503.336 72.7723 502.906 72.7723C501.445 72.7723 500.898 72.2255 500.898 70.577ZM512.266 72.1239C512.266 72.4911 512.055 72.7255 511.719 72.7255C511.383 72.7255 511.188 72.4989 511.188 72.1239V67.413C511.188 66.0848 510.445 65.3114 509.203 65.3114C507.789 65.3114 506.859 66.3583 506.859 67.9989V72.1239C506.859 72.4989 506.656 72.7255 506.32 72.7255C505.984 72.7255 505.781 72.4989 505.781 72.1239V61.9833C505.781 61.6161 505.984 61.3817 506.32 61.3817C506.656 61.3817 506.859 61.6161 506.859 61.9833V66.0067H506.914C507.203 65.0223 508.258 64.3427 509.5 64.3427C511.211 64.3427 512.266 65.3973 512.266 67.0927V72.1239ZM514.32 69.202V67.9598C514.32 65.7723 515.688 64.3427 517.648 64.3427C519.555 64.3427 520.898 65.7333 520.898 67.8427C520.898 68.5927 520.758 68.8192 520.273 68.8192H515.406V69.2645C515.406 70.8661 516.328 71.8192 517.812 71.8192C518.695 71.8192 519.242 71.4442 519.633 71.038C519.984 70.6864 520.07 70.6317 520.258 70.6317C520.508 70.6317 520.695 70.8427 520.695 71.1083C520.695 71.327 520.531 71.6708 520.258 71.9364C519.766 72.4598 518.828 72.788 517.766 72.788C515.625 72.788 514.32 71.4442 514.32 69.202ZM515.406 67.8817H519.812V67.8583C519.812 66.2802 518.969 65.2958 517.648 65.2958C516.312 65.2958 515.406 66.3114 515.406 67.8583V67.8817ZM527.344 72.1239C527.344 72.4989 527.148 72.7255 526.812 72.7255C526.477 72.7255 526.266 72.4989 526.266 72.1239V65.0067C526.266 64.6395 526.477 64.4052 526.812 64.4052C527.141 64.4052 527.344 64.6395 527.344 65.0067V65.5614H527.375C527.766 64.8036 528.422 64.3427 529.305 64.3427C529.539 64.3427 529.727 64.3817 529.859 64.4598C530.023 64.538 530.109 64.6864 530.109 64.8661C530.109 65.0692 530.039 65.2098 529.859 65.288C529.727 65.3505 529.547 65.3661 529.297 65.3661C528.078 65.3661 527.344 66.0614 527.344 67.538V72.1239ZM531.227 69.202V67.9598C531.227 65.7723 532.594 64.3427 534.555 64.3427C536.461 64.3427 537.805 65.7333 537.805 67.8427C537.805 68.5927 537.664 68.8192 537.18 68.8192H532.312V69.2645C532.312 70.8661 533.234 71.8192 534.719 71.8192C535.602 71.8192 536.148 71.4442 536.539 71.038C536.891 70.6864 536.977 70.6317 537.164 70.6317C537.414 70.6317 537.602 70.8427 537.602 71.1083C537.602 71.327 537.438 71.6708 537.164 71.9364C536.672 72.4598 535.734 72.788 534.672 72.788C532.531 72.788 531.227 71.4442 531.227 69.202ZM532.312 67.8817H536.719V67.8583C536.719 66.2802 535.875 65.2958 534.555 65.2958C533.219 65.2958 532.312 66.3114 532.312 67.8583V67.8817ZM539.43 70.952C539.43 70.6395 539.617 70.4442 539.922 70.4442C540.117 70.4442 540.258 70.5458 540.477 70.8505C540.93 71.5223 541.648 71.8739 542.555 71.8739C543.68 71.8739 544.461 71.3661 544.461 70.4911C544.461 69.8192 543.945 69.3817 543.172 69.1864L541.672 68.827C540.289 68.4911 539.586 67.8114 539.586 66.6708C539.586 65.2411 540.719 64.3427 542.469 64.3427C543.273 64.3427 544 64.5458 544.547 64.913C545.055 65.2723 545.344 65.7567 545.344 66.1317C545.344 66.4208 545.156 66.6005 544.875 66.6005C544.656 66.6005 544.547 66.5223 544.289 66.2177C543.82 65.5927 543.305 65.2567 542.43 65.2567C541.359 65.2567 540.656 65.7489 540.656 66.5927C540.656 67.2567 541.094 67.6552 541.977 67.8817L543.422 68.2411C544.805 68.5927 545.523 69.2255 545.523 70.3973C545.523 71.8973 544.312 72.788 542.5 72.788C541.695 72.788 540.945 72.5927 540.367 72.2567C539.789 71.9208 539.43 71.4052 539.43 70.952ZM548.039 70.577V65.413H547.297C546.984 65.413 546.781 65.2333 546.781 64.952C546.781 64.6552 546.977 64.4833 547.297 64.4833H548.039V63.0145C548.039 62.6395 548.242 62.413 548.578 62.413C548.914 62.413 549.117 62.6395 549.117 63.0145V64.4833H550.453C550.773 64.4833 550.969 64.6552 550.969 64.952C550.969 65.2333 550.766 65.413 550.453 65.413H549.117V70.6395C549.117 71.5536 549.398 71.8192 550.227 71.8192C550.492 71.8192 550.648 71.7958 550.789 71.7958C551.047 71.7958 551.227 71.952 551.227 72.2098C551.227 72.4052 551.133 72.5536 550.93 72.6395C550.75 72.7255 550.477 72.7723 550.047 72.7723C548.586 72.7723 548.039 72.2255 548.039 70.577ZM559.117 64.3427C561.055 64.3427 562.547 65.6317 562.547 67.9208V69.2098C562.547 71.4989 561.055 72.788 559.117 72.788C557.164 72.788 555.68 71.4989 555.68 69.2098V67.9208C555.68 65.6239 557.164 64.3427 559.117 64.3427ZM559.117 65.3114C557.711 65.3114 556.773 66.3583 556.773 68.038V69.0927C556.773 70.7958 557.711 71.8192 559.117 71.8192C560.531 71.8192 561.461 70.8036 561.461 69.0927V68.038C561.461 66.3661 560.523 65.3114 559.117 65.3114ZM566.25 72.1239C566.25 72.4989 566.047 72.7255 565.711 72.7255C565.375 72.7255 565.172 72.4989 565.172 72.1239V65.413H564.359C564.047 65.413 563.844 65.2333 563.844 64.9442C563.844 64.6552 564.039 64.4833 564.359 64.4833H565.172V63.6083C565.172 62.0927 565.906 61.3739 567.391 61.3739C567.781 61.3739 568.117 61.452 568.289 61.577C568.422 61.6786 568.5 61.8036 568.5 61.9677C568.5 62.2177 568.344 62.3895 568.078 62.3895C567.789 62.3895 567.656 62.327 567.289 62.327C566.586 62.327 566.25 62.702 566.25 63.5458V64.4833H567.609C567.922 64.4833 568.125 64.6552 568.125 64.952C568.125 65.2333 567.922 65.413 567.609 65.413H566.25V72.1239ZM573.539 70.577V65.413H572.797C572.484 65.413 572.281 65.2333 572.281 64.952C572.281 64.6552 572.477 64.4833 572.797 64.4833H573.539V63.0145C573.539 62.6395 573.742 62.413 574.078 62.413C574.414 62.413 574.617 62.6395 574.617 63.0145V64.4833H575.953C576.273 64.4833 576.469 64.6552 576.469 64.952C576.469 65.2333 576.266 65.413 575.953 65.413H574.617V70.6395C574.617 71.5536 574.898 71.8192 575.727 71.8192C575.992 71.8192 576.148 71.7958 576.289 71.7958C576.547 71.7958 576.727 71.952 576.727 72.2098C576.727 72.4052 576.633 72.5536 576.43 72.6395C576.25 72.7255 575.977 72.7723 575.547 72.7723C574.086 72.7723 573.539 72.2255 573.539 70.577ZM584.906 72.1239C584.906 72.4911 584.695 72.7255 584.359 72.7255C584.023 72.7255 583.828 72.4989 583.828 72.1239V67.413C583.828 66.0848 583.086 65.3114 581.844 65.3114C580.43 65.3114 579.5 66.3583 579.5 67.9989V72.1239C579.5 72.4989 579.297 72.7255 578.961 72.7255C578.625 72.7255 578.422 72.4989 578.422 72.1239V61.9833C578.422 61.6161 578.625 61.3817 578.961 61.3817C579.297 61.3817 579.5 61.6161 579.5 61.9833V66.0067H579.555C579.844 65.0223 580.898 64.3427 582.141 64.3427C583.852 64.3427 584.906 65.3973 584.906 67.0927V72.1239ZM586.961 69.202V67.9598C586.961 65.7723 588.328 64.3427 590.289 64.3427C592.195 64.3427 593.539 65.7333 593.539 67.8427C593.539 68.5927 593.398 68.8192 592.914 68.8192H588.047V69.2645C588.047 70.8661 588.969 71.8192 590.453 71.8192C591.336 71.8192 591.883 71.4442 592.273 71.038C592.625 70.6864 592.711 70.6317 592.898 70.6317C593.148 70.6317 593.336 70.8427 593.336 71.1083C593.336 71.327 593.172 71.6708 592.898 71.9364C592.406 72.4598 591.469 72.788 590.406 72.788C588.266 72.788 586.961 71.4442 586.961 69.202ZM588.047 67.8817H592.453V67.8583C592.453 66.2802 591.609 65.2958 590.289 65.2958C588.953 65.2958 588.047 66.3114 588.047 67.8583V67.8817ZM600.438 72.1239C600.438 72.4989 600.234 72.7255 599.898 72.7255C599.562 72.7255 599.359 72.4989 599.359 72.1239V65.413H598.547C598.234 65.413 598.031 65.2333 598.031 64.9442C598.031 64.6552 598.227 64.4833 598.547 64.4833H599.359V63.6083C599.359 62.0927 600.094 61.3739 601.578 61.3739C601.969 61.3739 602.305 61.452 602.477 61.577C602.609 61.6786 602.688 61.8036 602.688 61.9677C602.688 62.2177 602.531 62.3895 602.266 62.3895C601.977 62.3895 601.844 62.327 601.477 62.327C600.773 62.327 600.438 62.702 600.438 63.5458V64.4833H601.797C602.109 64.4833 602.312 64.6552 602.312 64.952C602.312 65.2333 602.109 65.413 601.797 65.413H600.438V72.1239ZM604.016 62.4052C604.016 61.9755 604.352 61.663 604.758 61.663C605.195 61.663 605.523 61.9755 605.523 62.4052C605.523 62.8348 605.195 63.163 604.758 63.163C604.352 63.163 604.016 62.8348 604.016 62.4052ZM605.305 72.1239C605.305 72.5302 605.07 72.7255 604.766 72.7255C604.461 72.7255 604.227 72.5223 604.227 72.1239V65.0067C604.227 64.6005 604.469 64.4052 604.773 64.4052C605.078 64.4052 605.305 64.6083 605.305 65.0067V72.1239ZM607.555 69.202V67.9598C607.555 65.7723 608.922 64.3427 610.883 64.3427C612.789 64.3427 614.133 65.7333 614.133 67.8427C614.133 68.5927 613.992 68.8192 613.508 68.8192H608.641V69.2645C608.641 70.8661 609.562 71.8192 611.047 71.8192C611.93 71.8192 612.477 71.4442 612.867 71.038C613.219 70.6864 613.305 70.6317 613.492 70.6317C613.742 70.6317 613.93 70.8427 613.93 71.1083C613.93 71.327 613.766 71.6708 613.492 71.9364C613 72.4598 612.062 72.788 611 72.788C608.859 72.788 607.555 71.4442 607.555 69.202ZM608.641 67.8817H613.047V67.8583C613.047 66.2802 612.203 65.2958 610.883 65.2958C609.547 65.2958 608.641 66.3114 608.641 67.8583V67.8817ZM616.867 72.7255C616.562 72.7255 616.328 72.5302 616.328 72.1239V61.9833C616.328 61.577 616.562 61.3817 616.867 61.3817C617.172 61.3817 617.406 61.577 617.406 61.9833V72.1239C617.406 72.5302 617.172 72.7255 616.867 72.7255ZM625.305 71.2723C625.094 72.0302 624.125 72.788 622.781 72.788C620.891 72.788 619.633 71.4598 619.633 69.413V67.7255C619.633 65.6395 620.953 64.3427 622.812 64.3427C624.078 64.3427 624.953 64.9833 625.258 65.7723H625.312V61.9833C625.312 61.6161 625.516 61.3817 625.852 61.3817C626.188 61.3817 626.391 61.6161 626.391 61.9833V72.1161C626.391 72.4989 626.203 72.7177 625.875 72.7177C625.555 72.7177 625.367 72.4989 625.367 72.1161V71.2723H625.305ZM620.727 69.1317C620.727 70.8348 621.602 71.8192 622.984 71.8192C624.422 71.8192 625.312 70.7645 625.312 69.2567V67.7489C625.312 66.3427 624.328 65.3114 622.945 65.3114C621.609 65.3114 620.727 66.2802 620.727 67.9989V69.1317ZM630.484 68.8661C630.484 67.827 630.75 67.3114 631.984 66.3192C632.875 65.6083 633.203 65.1473 633.203 64.3583C633.203 63.3973 632.406 62.7098 631.297 62.7098C630.133 62.7098 629.523 63.2958 629.195 64.202C629.055 64.5536 628.922 64.6786 628.672 64.6786C628.391 64.6786 628.219 64.4833 628.219 64.1786C628.219 63.577 628.555 62.913 629.148 62.4286C629.672 61.9911 630.391 61.7645 631.281 61.7645C633.062 61.7645 634.312 62.8036 634.312 64.3661C634.312 65.3583 633.867 66.0458 632.789 66.913C631.781 67.7177 631.625 68.0458 631.562 68.8583C631.531 69.2489 631.352 69.4442 631.023 69.4442C630.703 69.4442 630.484 69.2177 630.484 68.8661ZM630.266 71.9989C630.266 71.5614 630.625 71.2098 631.055 71.2098C631.492 71.2098 631.852 71.5614 631.852 71.9989C631.852 72.4364 631.492 72.788 631.055 72.788C630.625 72.788 630.266 72.4364 630.266 71.9989Z" fill="#F2F2F2"/>
<line x1="0.495885" y1="93.2483" x2="335.838" y2="92.5583" stroke="url(#paint0_linear_573_650)" stroke-width="4"/>
<defs>
<linearGradient id="paint0_linear_573_650" x1="0.501029" y1="95.7483" x2="335.843" y2="95.0583" gradientUnits="userSpaceOnUse">
<stop stop-color="#FF932C"/>
<stop offset="0.455" stop-color="#EE1177"/>
<stop offset="1" stop-color="#3FC3DD"/>
</linearGradient>
</defs>
</svg>
